# xmcd
#
# Track frame offsets: 
#        150
#        15629
#        34015
#        52817
#        68764
#        87436
#        113745
#        135475
#        150573
#        169514
#        190071
#        206296
#        224328
#        244170
#        266334
#        284814
#        304792
#
# Disc length: 4273 seconds
#
# Revision: 0
# Processed by: cddbd v1.5.2PL0 Copyright (c) Steve Scherf et al.
# Submitted via: ExactAudioCopy v0.95b4
#
DISCID=e410af11
DTITLE=Barry White - The Ultimate Collection
DYEAR=2000
DGENRE=Soul
TTITLE0=You're The First, The Last, My Everything
TTITLE1=Can't Get Enough Of Your Love Babe
TTITLE2=Love's Theme
TTITLE3=Let The Music Play
TTITLE4=Never, Never Gonna Give You Up
TTITLE5=Come On
TTITLE6=Just The Way You Are
TTITLE7=Don't Make Me Wait Too Long
TTITLE8=I'll Do For You Anything You Want Me To
TTITLE9=Sho You Right
TTITLE10=What Am I Gonna Do With You
TTITLE11=I'm Gonna Love You Just A Little More Babe
TTITLE12=Baby We Better try And Get It Together
TTITLE13=Dark And Lonely
TTITLE14=The Right Night
TTITLE15=Walking In The Rain
TTITLE16=You See The Trouble With Me
EXTD=
EXTT0=
EXTT1=
EXTT2=
EXTT3=
EXTT4=
EXTT5=
EXTT6=
EXTT7=
EXTT8=
EXTT9=
EXTT10=
EXTT11=
EXTT12=
EXTT13=
EXTT14=
EXTT15=
EXTT16=
PLAYORDER=
